<?xml version="1.0" encoding="utf-8"?><!DOCTYPE svg PUBLIC "-//W3C//DTD SVG 1.1//EN" "http://www.w3.org/Graphics/SVG/1.1/DTD/svg11.dtd"><svg version="1.1" xmlns="http://www.w3.org/2000/svg" xmlns:xlink="http://www.w3.org/1999/xlink" width="24" height="24" viewBox="0 0 24 24" data-tags="pin"><g fill="#444" transform="scale(0.0234375 0.0234375)"><path d="M713.771 182.229c-16.597-16.683-43.563-16.768-60.331-0.171-4.437 4.437-7.509 9.685-9.6 15.147-35.499 74.069-74.581 115.84-123.904 140.501-55.339 27.307-118.869 46.293-221.269 46.293-5.547 0-11.093 1.067-16.299 3.243-10.453 4.352-18.731 12.672-23.083 23.083-4.309 10.411-4.309 22.187 0 32.597 2.176 5.248 5.291 9.984 9.259 13.909l138.368 138.368-193.579 258.133 258.133-193.579 138.325 138.325c3.925 4.011 8.661 7.083 13.909 9.259 5.205 2.176 10.752 3.328 16.299 3.328s11.093-1.152 16.299-3.328c10.453-4.352 18.773-12.587 23.083-23.083 2.176-5.163 3.285-10.752 3.285-16.256 0-102.4 18.944-165.931 46.208-220.416 24.619-49.323 66.389-88.405 140.501-123.904 5.504-2.091 10.709-5.163 15.104-9.6 16.597-16.768 16.512-43.733-0.171-60.331l-170.539-171.52z" /></g></svg>