<?xml version="1.0" encoding="utf-8"?><!DOCTYPE svg PUBLIC "-//W3C//DTD SVG 1.1//EN" "http://www.w3.org/Graphics/SVG/1.1/DTD/svg11.dtd"><svg version="1.1" xmlns="http://www.w3.org/2000/svg" xmlns:xlink="http://www.w3.org/1999/xlink" width="24" height="24" viewBox="0 0 24 24" data-tags="pin-outline"><g fill="#444" transform="scale(0.0234375 0.0234375)"><path d="M914.603 323.669l-170.581-171.52c-32.085-32.256-88.021-32.597-120.747-0.256-8.363 8.363-14.933 18.603-17.835 26.837-27.861 58.112-57.771 94.507-96.171 116.352l-9.259 4.48c-41.301 20.693-97.493 41.771-201.344 41.771-11.349 0-22.229 2.219-32.683 6.485-20.651 8.619-37.504 25.387-46.165 46.251-8.491 20.651-8.491 44.416 0 65.067 4.437 10.624 10.667 20.096 18.56 27.776l138.027 138.027-163.072 228.395 228.352-163.072 137.685 137.685c7.936 8.064 17.323 14.464 27.989 18.816 10.539 4.395 21.461 6.571 32.683 6.571s22.144-2.219 32.64-6.571c21.248-8.747 37.675-25.259 46.080-45.995 4.395-10.325 6.613-21.632 6.613-32.768 0-103.936 21.077-160.085 41.728-201.429 21.163-42.325 58.411-74.581 117.504-102.997 11.563-4.437 21.76-10.923 30.336-19.499 32.939-33.365 32.768-87.509-0.341-120.405zM690.688 528.512c-34.944 70.101-50.688 143.787-50.987 239.104l-341.035-340.949c91.264 0 162.731-14.293 230.229-46.251l10.027-4.48c59.691-29.824 105.301-80.768 144.555-163.584l167.424 172.843c-79.488 38.101-130.389 83.627-160.213 143.317z" /></g></svg>